<?xml version="1.0" encoding="UTF-8" standalone="no"?>
<!DOCTYPE svg PUBLIC "-//W3C//DTD SVG 1.1//EN"
 "http://www.w3.org/Graphics/SVG/1.1/DTD/svg11.dtd">
<!-- Generated by graphviz version 2.41.20171026.1811 (20171026.1811)
 -->
<!-- Title: G Pages: 1 -->
<svg width="609pt" height="706pt"
 viewBox="0.00 0.00 608.58 706.00" xmlns="http://www.w3.org/2000/svg" xmlns:xlink="http://www.w3.org/1999/xlink">
<g id="graph0" class="graph" transform="scale(1 1) rotate(0) translate(4 702)">
<title>G</title>
<polygon fill="white" stroke="transparent" points="-4,4 -4,-702 604.58,-702 604.58,4 -4,4"/>
<g id="clust1" class="cluster">
<title>cluster_Global</title>
<path fill="none" stroke="gray" d="M20,-44C20,-44 580.58,-44 580.58,-44 586.58,-44 592.58,-50 592.58,-56 592.58,-56 592.58,-678 592.58,-678 592.58,-684 586.58,-690 580.58,-690 580.58,-690 20,-690 20,-690 14,-690 8,-684 8,-678 8,-678 8,-56 8,-56 8,-50 14,-44 20,-44"/>
<text text-anchor="middle" x="300.29" y="-677.2" font-family="Times,serif" font-size="11.00" fill="gray">Global</text>
</g>
<g id="clust2" class="cluster">
<title>cluster_\Hametuha</title>
<path fill="none" stroke="gray" d="M235.28,-52C235.28,-52 572.58,-52 572.58,-52 578.58,-52 584.58,-58 584.58,-64 584.58,-64 584.58,-606 584.58,-606 584.58,-612 578.58,-618 572.58,-618 572.58,-618 235.28,-618 235.28,-618 229.28,-618 223.28,-612 223.28,-606 223.28,-606 223.28,-64 223.28,-64 223.28,-58 229.28,-52 235.28,-52"/>
<text text-anchor="middle" x="403.93" y="-605.2" font-family="Times,serif" font-size="11.00" fill="gray">Hametuha</text>
</g>
<g id="clust3" class="cluster">
<title>cluster_\Hametuha\Pattern</title>
<path fill="none" stroke="gray" d="M243.28,-60C243.28,-60 564.58,-60 564.58,-60 570.58,-60 576.58,-66 576.58,-72 576.58,-72 576.58,-578 576.58,-578 576.58,-584 570.58,-590 564.58,-590 564.58,-590 243.28,-590 243.28,-590 237.28,-590 231.28,-584 231.28,-578 231.28,-578 231.28,-72 231.28,-72 231.28,-66 237.28,-60 243.28,-60"/>
<text text-anchor="middle" x="403.93" y="-577.2" font-family="Times,serif" font-size="11.00" fill="gray">Pattern</text>
</g>
<g id="clust4" class="cluster">
<title>cluster_\Hametuha\Pattern\Master</title>
<path fill="none" stroke="gray" d="M442.58,-490C442.58,-490 556.58,-490 556.58,-490 562.58,-490 568.58,-496 568.58,-502 568.58,-502 568.58,-550 568.58,-550 568.58,-556 562.58,-562 556.58,-562 556.58,-562 442.58,-562 442.58,-562 436.58,-562 430.58,-556 430.58,-550 430.58,-550 430.58,-502 430.58,-502 430.58,-496 436.58,-490 442.58,-490"/>
<text text-anchor="middle" x="499.58" y="-549.2" font-family="Times,serif" font-size="11.00" fill="gray">Master</text>
</g>
<g id="clust5" class="cluster">
<title>cluster_\Hametuha\Pattern\DB</title>
<path fill="none" stroke="gray" d="M475.58,-356C475.58,-356 523.58,-356 523.58,-356 529.58,-356 535.58,-362 535.58,-368 535.58,-368 535.58,-470 535.58,-470 535.58,-476 529.58,-482 523.58,-482 523.58,-482 475.58,-482 475.58,-482 469.58,-482 463.58,-476 463.58,-470 463.58,-470 463.58,-368 463.58,-368 463.58,-362 469.58,-356 475.58,-356"/>
<text text-anchor="middle" x="499.58" y="-469.2" font-family="Times,serif" font-size="11.00" fill="gray">DB</text>
</g>
<g id="clust6" class="cluster">
<title>cluster_\Hametuha\Pattern\Utility</title>
<path fill="none" stroke="gray" d="M462.08,-276C462.08,-276 537.08,-276 537.08,-276 543.08,-276 549.08,-282 549.08,-288 549.08,-288 549.08,-336 549.08,-336 549.08,-342 543.08,-348 537.08,-348 537.08,-348 462.08,-348 462.08,-348 456.08,-348 450.08,-342 450.08,-336 450.08,-336 450.08,-288 450.08,-288 450.08,-282 456.08,-276 462.08,-276"/>
<text text-anchor="middle" x="499.58" y="-335.2" font-family="Times,serif" font-size="11.00" fill="gray">Utility</text>
</g>
<g id="clust7" class="cluster">
<title>cluster_Global\Hametuha</title>
<path fill="none" stroke="gray" d="M28,-133C28,-133 126.99,-133 126.99,-133 132.99,-133 138.99,-139 138.99,-145 138.99,-145 138.99,-229 138.99,-229 138.99,-235 132.99,-241 126.99,-241 126.99,-241 28,-241 28,-241 22,-241 16,-235 16,-229 16,-229 16,-145 16,-145 16,-139 22,-133 28,-133"/>
<text text-anchor="middle" x="77.5" y="-228.2" font-family="Times,serif" font-size="11.00" fill="gray">Hametuha</text>
</g>
<g id="clust8" class="cluster">
<title>cluster_Global\Hametuha\SingletonPattern</title>
<path fill="none" stroke="gray" d="M36,-141C36,-141 118.99,-141 118.99,-141 124.99,-141 130.99,-147 130.99,-153 130.99,-153 130.99,-201 130.99,-201 130.99,-207 124.99,-213 118.99,-213 118.99,-213 36,-213 36,-213 30,-213 24,-207 24,-201 24,-201 24,-153 24,-153 24,-147 30,-141 36,-141"/>
<text text-anchor="middle" x="77.5" y="-200.2" font-family="Times,serif" font-size="11.00" fill="gray">SingletonPattern</text>
</g>
<!-- \\Hametuha\\Pattern\\Master\\RestResultObject -->
<g id="node1" class="node">
<title>\\Hametuha\\Pattern\\Master\\RestResultObject</title>
<polygon fill="none" stroke="black" points="560.58,-534 438.58,-534 438.58,-498 560.58,-498 560.58,-534"/>
<text text-anchor="middle" x="499.58" y="-513.2" font-family="Courier,monospace" font-size="11.00">RestResultObject</text>
</g>
<!-- \\Hametuha\\Pattern\\DB\\Engine -->
<g id="node2" class="node">
<title>\\Hametuha\\Pattern\\DB\\Engine</title>
<polygon fill="none" stroke="black" points="527.58,-454 471.58,-454 471.58,-418 527.58,-418 527.58,-454"/>
<text text-anchor="middle" x="499.58" y="-433.2" font-family="Courier,monospace" font-size="11.00">Engine</text>
</g>
<!-- \\Hametuha\\Pattern\\DB\\Column -->
<g id="node3" class="node">
<title>\\Hametuha\\Pattern\\DB\\Column</title>
<polygon fill="none" stroke="black" points="527.58,-400 471.58,-400 471.58,-364 527.58,-364 527.58,-400"/>
<text text-anchor="middle" x="499.58" y="-379.2" font-family="Courier,monospace" font-size="11.00">Column</text>
</g>
<!-- \\Hametuha\\Pattern\\Utility\\Reflection -->
<g id="node4" class="node">
<title>\\Hametuha\\Pattern\\Utility\\Reflection</title>
<polygon fill="none" stroke="black" points="541.08,-320 458.08,-320 458.08,-284 541.08,-284 541.08,-320"/>
<text text-anchor="middle" x="499.58" y="-299.2" font-family="Courier,monospace" font-size="11.00">Reflection</text>
</g>
<!-- \\Hametuha\\Pattern\\TableScreen -->
<g id="node5" class="node">
<title>\\Hametuha\\Pattern\\TableScreen</title>
<polygon fill="none" stroke="black" points="544.08,-212 455.08,-212 455.08,-176 544.08,-176 544.08,-212"/>
<text text-anchor="start" x="466.08" y="-197.2" font-family="Courier,monospace" font-size="11.00">«abstract»</text>
<text text-anchor="start" x="463.08" y="-185.2" font-family="Courier,monospace" font-size="11.00">TableScreen</text>
</g>
<!-- \\Hametuha\\Pattern\\Singleton -->
<g id="node9" class="node">
<title>\\Hametuha\\Pattern\\Singleton</title>
<polygon fill="none" stroke="black" points="322.28,-185 239.28,-185 239.28,-149 322.28,-149 322.28,-185"/>
<text text-anchor="start" x="247.28" y="-170.2" font-family="Courier,monospace" font-size="11.00">«abstract»</text>
<text text-anchor="start" x="250.78" y="-158.2" font-family="Courier,monospace" font-size="11.00">Singleton</text>
</g>
<!-- \\Hametuha\\Pattern\\TableScreen&#45;&gt;\\Hametuha\\Pattern\\Singleton -->
<g id="edge1" class="edge">
<title>\\Hametuha\\Pattern\\TableScreen&#45;&gt;\\Hametuha\\Pattern\\Singleton</title>
<path fill="none" stroke="black" d="M454.97,-188.57C419.59,-184.16 369.67,-177.95 332.51,-173.32"/>
<polygon fill="none" stroke="black" points="332.75,-169.82 322.39,-172.06 331.88,-176.77 332.75,-169.82"/>
</g>
<!-- \\Hametuha\\Pattern\\RestApi -->
<g id="node6" class="node">
<title>\\Hametuha\\Pattern\\RestApi</title>
<polygon fill="none" stroke="black" points="541.08,-104 458.08,-104 458.08,-68 541.08,-68 541.08,-104"/>
<text text-anchor="start" x="466.08" y="-89.2" font-family="Courier,monospace" font-size="11.00">«abstract»</text>
<text text-anchor="start" x="476.08" y="-77.2" font-family="Courier,monospace" font-size="11.00">RestApi</text>
</g>
<!-- RestApiBase -->
<g id="node12" class="node">
<title>RestApiBase</title>
<ellipse fill="none" stroke="black" cx="280.78" cy="-18" rx="58.49" ry="18"/>
<text text-anchor="middle" x="280.78" y="-14.3" font-family="Times,serif" font-size="14.00">RestApiBase</text>
</g>
<!-- \\Hametuha\\Pattern\\RestApi&#45;&gt;RestApiBase -->
<g id="edge2" class="edge">
<title>\\Hametuha\\Pattern\\RestApi&#45;&gt;RestApiBase</title>
<path fill="none" stroke="black" d="M458.05,-73.29C422.5,-62.14 370.66,-45.88 332.39,-33.87"/>
<polygon fill="none" stroke="black" points="333.06,-30.42 322.48,-30.76 330.97,-37.1 333.06,-30.42"/>
</g>
<!-- \\Hametuha\\Pattern\\Model -->
<g id="node7" class="node">
<title>\\Hametuha\\Pattern\\Model</title>
<polygon fill="none" stroke="black" points="541.08,-158 458.08,-158 458.08,-122 541.08,-122 541.08,-158"/>
<text text-anchor="start" x="466.08" y="-143.2" font-family="Courier,monospace" font-size="11.00">«abstract»</text>
<text text-anchor="start" x="482.58" y="-131.2" font-family="Courier,monospace" font-size="11.00">Model</text>
</g>
<!-- \\Hametuha\\Pattern\\Model&#45;&gt;\\Hametuha\\Pattern\\Singleton -->
<g id="edge3" class="edge">
<title>\\Hametuha\\Pattern\\Model&#45;&gt;\\Hametuha\\Pattern\\Singleton</title>
<path fill="none" stroke="black" d="M458.05,-145.05C422.66,-149.46 371.1,-155.88 332.88,-160.64"/>
<polygon fill="none" stroke="black" points="331.97,-157.22 322.48,-161.93 332.83,-164.17 331.97,-157.22"/>
</g>
<!-- \\Hametuha\\Pattern\\Command -->
<g id="node8" class="node">
<title>\\Hametuha\\Pattern\\Command</title>
<polygon fill="none" stroke="black" points="531.08,-266 468.08,-266 468.08,-230 531.08,-230 531.08,-266"/>
<text text-anchor="middle" x="499.58" y="-245.2" font-family="Courier,monospace" font-size="11.00">Command</text>
</g>
<!-- WP_CLI_Command -->
<g id="node11" class="node">
<title>WP_CLI_Command</title>
<ellipse fill="none" stroke="black" cx="280.78" cy="-644" rx="85.59" ry="18"/>
<text text-anchor="middle" x="280.78" y="-640.3" font-family="Times,serif" font-size="14.00" fill="gray">WP_CLI_Command</text>
</g>
<!-- \\Hametuha\\Pattern\\Command&#45;&gt;WP_CLI_Command -->
<g id="edge4" class="edge">
<title>\\Hametuha\\Pattern\\Command&#45;&gt;WP_CLI_Command</title>
<path fill="none" stroke="black" d="M467.99,-251.92C454.68,-255.17 440,-261.12 430.58,-272 335.04,-382.29 451.01,-475 366.58,-594 357.9,-606.23 345.21,-615.95 332.27,-623.45"/>
<polygon fill="none" stroke="black" points="330.46,-620.45 323.33,-628.28 333.79,-626.6 330.46,-620.45"/>
</g>
<!-- Singleton -->
<g id="node10" class="node">
<title>Singleton</title>
<ellipse fill="none" stroke="black" cx="77.5" cy="-167" rx="45.49" ry="18"/>
<text text-anchor="middle" x="77.5" y="-163.3" font-family="Times,serif" font-size="14.00" fill="gray">Singleton</text>
</g>
<!-- \\Hametuha\\Pattern\\Singleton&#45;&gt;Singleton -->
<g id="edge5" class="edge">
<title>\\Hametuha\\Pattern\\Singleton&#45;&gt;Singleton</title>
<path fill="none" stroke="black" d="M239.05,-167C208.55,-167 166.5,-167 133.09,-167"/>
<polygon fill="none" stroke="black" points="133.02,-163.5 123.02,-167 133.02,-170.5 133.02,-163.5"/>
</g>
</g>
</svg>
